<?xml version="1.0" standalone="no"?>
<!DOCTYPE svg PUBLIC "-//W3C//DTD SVG 20010904//EN"
 "http://www.w3.org/TR/2001/REC-SVG-20010904/DTD/svg10.dtd">
<svg version="1.0" xmlns="http://www.w3.org/2000/svg"
 width="250.000000pt" height="250.000000pt" viewBox="0 0 250.000000 250.000000"
 preserveAspectRatio="xMidYMid meet">
<metadata>
Created by potrace 1.13, written by Peter Selinger 2001-2015
</metadata>
<g transform="translate(0.000000,250.000000) scale(0.100000,-0.100000)"
fill="#000000" stroke="none">
<path d="M1488 2238 c-19 -34 -15 -380 6 -543 69 -521 197 -1028 284 -1127 22
-26 31 -22 48 17 28 67 16 334 -32 703 l-7 54 -14 -34 c-24 -56 -108 -129
-132 -113 -8 4 -29 109 -65 320 -7 44 -10 84 -6 88 14 16 103 -16 142 -51 21
-19 38 -29 38 -22 0 29 -65 304 -101 426 -53 181 -109 304 -140 304 -5 0 -14
-10 -21 -22z"/>
<path d="M480 1525 c-92 -19 -135 -40 -189 -90 -67 -63 -95 -123 -99 -215 -5
-98 21 -171 84 -235 47 -49 132 -95 176 -95 33 0 58 -24 58 -56 0 -13 3 -24 6
-24 4 0 42 21 85 47 64 38 78 50 74 67 -9 43 -94 525 -102 579 -3 20 -11 36
-17 36 -6 -1 -40 -7 -76 -14z"/>
<path d="M595 709 c-3 -10 -1 -36 5 -60 15 -55 83 -225 115 -289 16 -31 21
-50 14 -52 -7 -2 -9 -15 -5 -35 l7 -32 102 35 c198 68 187 62 175 96 -6 18
-16 27 -24 24 -7 -3 -16 4 -19 15 -8 25 -14 24 -55 -6 -19 -14 -44 -25 -56
-25 -25 0 -54 34 -54 62 0 11 -5 15 -15 12 -26 -10 -65 23 -65 55 0 20 -7 31
-25 39 -25 12 -41 51 -31 77 3 9 -3 19 -15 26 -11 6 -27 25 -34 42 -11 25 -15
28 -20 16z"/>
<path d="M270 492 c-30 -15 -104 -49 -163 -76 l-107 -50 0 -183 0 -183 95 0
94 0 153 86 c84 47 155 87 157 90 2 2 -19 50 -46 106 -28 57 -65 133 -83 171
-18 37 -36 67 -39 66 -3 0 -31 -13 -61 -27z"/>
</g>
</svg>
